The.River.Why.2010.BRRip.XviD.Ac3.Feel-Free

Genre:Drama
Language:English
IMDb:http://www.imdb.com/title/tt1241329/
Source:720p.BluRay.x264.MELiTE Thanks!

Format : AVI
Format/Info : Audio Video Interleave
File size : 1.18 GiB
Duration : 1h 44mn
Overall bit rate : 1 624 Kbps

Video
ID : 0
Format : MPEG-4 Visual
Format profile : Advanced Simple@L5
Format settings, BVOP : Yes
Format settings, QPel : No
Format settings, GMC : No warppoints
Format settings, Matrix : Default (H.263)
Codec ID : XVID
Codec ID/Hint : XviD
Duration : 1h 44mn
Bit rate : 1 167 Kbps
Width : 640 pixels
Height : 272 pixels
Display aspect ratio : 2.35:1
Frame rate : 23.976 fps
Color space : YUV
Chroma subsampling : 4:2:0
Bit depth : 8 bits
Scan type : Progressive
Bits/(Pixel*Frame) : 0.280
Stream size : 869 MiB (72%)
Writing library : XviD 1.2.1 (UTC 2008-12-04)

Audio
ID : 1
Format : AC-3
Format/Info : Audio Coding 3
Mode extension : CM (complete main)
Codec ID : 2000
Duration : 1h 44mn
Bit rate mode : Constant
Bit rate : 448 Kbps
Channel(s) : 6 channels
Channel positions : Front: L C R, Side: L R, LFE
Sampling rate : 48.0 KHz
Bit depth : 16 bits
Stream size : 334 MiB (28%)
Alignment : Aligned on interleaves
Interleave, duration : 42 ms (1.00 video frame)
Interleave, preload duration : 512 ms


Plot:
A fisherman abandons his big-city life to find himself in the wild.


Poster:

 
http://i.imgur.com/Ja1jv.jpg


Screens:

 
http://i.imgur.com/UcvlU.png
 
http://i.imgur.com/1pL5M.png
 
http://i.imgur.com/NfsbP.png


ENJOY!